<svg width="27" height="26" viewBox="0 0 27 26" fill="none" xmlns="http://www.w3.org/2000/svg">
<path d="M17.9863 6.10352e-05H8.22086C3.72714 6.10352e-05 0.0830078 3.63833 0.0830078 8.12482V17.8745C0.0830078 22.361 3.72714 25.9993 8.22086 25.9993H17.9863C22.48 25.9993 26.1241 22.361 26.1241 17.8745V8.12482C26.1241 3.63833 22.48 6.10352e-05 17.9863 6.10352e-05ZM23.6828 17.8745C23.6828 21.0107 21.1275 23.5619 17.9863 23.5619H8.22086C5.07965 23.5619 2.52436 21.0107 2.52436 17.8745V8.12482C2.52436 4.98866 5.07965 2.43749 8.22086 2.43749H17.9863C21.1275 2.43749 23.6828 4.98866 23.6828 8.12482V17.8745Z" fill="white"/>
<path d="M13.1035 6.50006C9.50813 6.50006 6.59314 9.41039 6.59314 13C6.59314 16.5895 9.50813 19.4999 13.1035 19.4999C16.6988 19.4999 19.6138 16.5895 19.6138 13C19.6138 9.41039 16.6988 6.50006 13.1035 6.50006ZM13.1035 17.0624C10.8607 17.0624 9.03451 15.2392 9.03451 13C9.03451 10.7591 10.8607 8.93752 13.1035 8.93752C15.3463 8.93752 17.1724 10.7591 17.1724 13C17.1724 15.2392 15.3463 17.0624 13.1035 17.0624Z" fill="white"/>
<path d="M20.1023 6.87883C20.5814 6.87883 20.9698 6.49122 20.9698 6.01307C20.9698 5.53492 20.5814 5.14731 20.1023 5.14731C19.6231 5.14731 19.2347 5.53492 19.2347 6.01307C19.2347 6.49122 19.6231 6.87883 20.1023 6.87883Z" fill="white"/>
</svg>
