<svg width="27" height="26" viewBox="0 0 27 26" fill="none" xmlns="http://www.w3.org/2000/svg">
<path d="M26.0765 25.9997V25.9986H26.083V16.4632C26.083 11.7984 25.0771 8.20499 19.6149 8.20499C16.989 8.20499 15.2268 9.64364 14.5074 11.0076H14.4315V8.64048H9.25244V25.9986H14.6452V17.4035C14.6452 15.1404 15.0749 12.9521 17.882 12.9521C20.6479 12.9521 20.6891 15.5348 20.6891 17.5487V25.9997H26.0765Z" fill="white"/>
<path d="M0.471069 8.64182H5.87025V25.9993H0.471069V8.64182Z" fill="white"/>
<path d="M3.16846 6.10352e-05C1.4421 6.10352e-05 0.0412598 1.39863 0.0412598 3.12221C0.0412598 4.84578 1.4421 6.2736 3.16846 6.2736C4.89483 6.2736 6.29567 4.84578 6.29567 3.12221C6.29458 1.39863 4.89374 6.10352e-05 3.16846 6.10352e-05V6.10352e-05Z" fill="white"/>
</svg>
