<svg width="27" height="22" viewBox="0 0 27 22" fill="none" xmlns="http://www.w3.org/2000/svg">
<path d="M26.0413 2.93834C25.0729 3.36244 24.041 3.64356 22.9651 3.78005C24.0719 3.12033 24.9166 2.08362 25.3137 0.834045C24.2819 1.44827 23.1425 1.88213 21.9284 2.12424C20.9486 1.08266 19.5521 0.437561 18.0287 0.437561C15.073 0.437561 12.6935 2.83272 12.6935 5.76897C12.6935 6.19146 12.7293 6.59769 12.8172 6.98442C8.37878 6.76831 4.45143 4.64452 1.81312 1.40927C1.35252 2.20712 1.08234 3.12033 1.08234 4.10341C1.08234 5.94934 2.03447 7.58565 3.45372 8.53299C2.59599 8.51674 1.75453 8.26812 1.04165 7.87651C1.04165 7.89276 1.04165 7.91389 1.04165 7.93501C1.04165 10.5252 2.89221 12.6766 5.31893 13.1722C4.88437 13.2908 4.41074 13.3477 3.91921 13.3477C3.57742 13.3477 3.23237 13.3282 2.90848 13.2567C3.60021 15.3675 5.56307 16.9193 7.89701 16.9696C6.08064 18.3882 3.77436 19.2429 1.27765 19.2429C0.839831 19.2429 0.419915 19.2234 0 19.1698C2.36487 20.6924 5.16756 21.5617 8.18998 21.5617C18.014 21.5617 23.3851 13.437 23.3851 6.39457C23.3851 6.15896 23.3769 5.93147 23.3655 5.7056C24.4251 4.95488 25.3154 4.01729 26.0413 2.93834Z" fill="white"/>
</svg>
